<svg width="716" height="68" viewBox="0 0 716 68" fill="none" xmlns="http://www.w3.org/2000/svg">
<path d="M16.032 6.328C20.7253 6.328 24.8427 7.24533 28.384 9.08C31.968 10.9147 34.72 13.5387 36.64 16.952C38.6027 20.3227 39.584 24.248 39.584 28.728C39.584 33.208 38.6027 37.1333 36.64 40.504C34.72 43.832 31.968 46.4133 28.384 48.248C24.8427 50.0827 20.7253 51 16.032 51H0.416V6.328H16.032ZM15.712 43.384C20.4053 43.384 24.032 42.104 26.592 39.544C29.152 36.984 30.432 33.3787 30.432 28.728C30.432 24.0773 29.152 20.4507 26.592 17.848C24.032 15.2027 20.4053 13.88 15.712 13.88H9.376V43.384H15.712ZM62.035 51.576C58.6217 51.576 55.5497 50.8293 52.819 49.336C50.0883 47.8 47.9337 45.6453 46.355 42.872C44.819 40.0987 44.051 36.8987 44.051 33.272C44.051 29.6453 44.8403 26.4453 46.419 23.672C48.0403 20.8987 50.2377 18.7653 53.011 17.272C55.7843 15.736 58.8777 14.968 62.291 14.968C65.7043 14.968 68.7977 15.736 71.571 17.272C74.3443 18.7653 76.5203 20.8987 78.099 23.672C79.7203 26.4453 80.531 29.6453 80.531 33.272C80.531 36.8987 79.699 40.0987 78.035 42.872C76.4137 45.6453 74.195 47.8 71.379 49.336C68.6057 50.8293 65.491 51.576 62.035 51.576ZM62.035 43.768C63.6563 43.768 65.171 43.384 66.579 42.616C68.0297 41.8053 69.1817 40.6107 70.035 39.032C70.8883 37.4533 71.315 35.5333 71.315 33.272C71.315 29.9013 70.419 27.32 68.627 25.528C66.8777 23.6933 64.723 22.776 62.163 22.776C59.603 22.776 57.4483 23.6933 55.699 25.528C53.9923 27.32 53.139 29.9013 53.139 33.272C53.139 36.6427 53.971 39.2453 55.635 41.08C57.3417 42.872 59.475 43.768 62.035 43.768ZM106.752 15.032C110.976 15.032 114.389 16.376 116.992 19.064C119.594 21.7093 120.896 25.4213 120.896 30.2V51H111.936V31.416C111.936 28.6 111.232 26.4453 109.824 24.952C108.416 23.416 106.496 22.648 104.064 22.648C101.589 22.648 99.6262 23.416 98.1755 24.952C96.7675 26.4453 96.0635 28.6 96.0635 31.416V51H87.1035V15.544H96.0635V19.96C97.2582 18.424 98.7728 17.2293 100.608 16.376C102.485 15.48 104.533 15.032 106.752 15.032ZM131.208 6.328H140.616L133.704 22.456H127.56L131.208 6.328ZM157.473 22.904V40.056C157.473 41.2507 157.75 42.1253 158.305 42.68C158.902 43.192 159.884 43.448 161.249 43.448H165.409V51H159.777C152.225 51 148.449 47.3307 148.449 39.992V22.904H144.225V15.544H148.449V6.776H157.473V15.544H165.409V22.904H157.473ZM196.064 3.64V51H187.104V3.64H196.064ZM220.66 51.576C217.247 51.576 214.175 50.8293 211.444 49.336C208.713 47.8 206.559 45.6453 204.98 42.872C203.444 40.0987 202.676 36.8987 202.676 33.272C202.676 29.6453 203.465 26.4453 205.044 23.672C206.665 20.8987 208.863 18.7653 211.636 17.272C214.409 15.736 217.503 14.968 220.916 14.968C224.329 14.968 227.423 15.736 230.196 17.272C232.969 18.7653 235.145 20.8987 236.724 23.672C238.345 26.4453 239.156 29.6453 239.156 33.272C239.156 36.8987 238.324 40.0987 236.66 42.872C235.039 45.6453 232.82 47.8 230.004 49.336C227.231 50.8293 224.116 51.576 220.66 51.576ZM220.66 43.768C222.281 43.768 223.796 43.384 225.204 42.616C226.655 41.8053 227.807 40.6107 228.66 39.032C229.513 37.4533 229.94 35.5333 229.94 33.272C229.94 29.9013 229.044 27.32 227.252 25.528C225.503 23.6933 223.348 22.776 220.788 22.776C218.228 22.776 216.073 23.6933 214.324 25.528C212.617 27.32 211.764 29.9013 211.764 33.272C211.764 36.6427 212.596 39.2453 214.26 41.08C215.967 42.872 218.1 43.768 220.66 43.768ZM259.297 51.576C256.395 51.576 253.793 51.064 251.489 50.04C249.185 48.9733 247.35 47.544 245.985 45.752C244.662 43.96 243.937 41.976 243.809 39.8H252.833C253.003 41.1653 253.665 42.296 254.817 43.192C256.011 44.088 257.483 44.536 259.233 44.536C260.939 44.536 262.262 44.1947 263.201 43.512C264.182 42.8293 264.673 41.9547 264.673 40.888C264.673 39.736 264.075 38.8827 262.881 38.328C261.729 37.7307 259.873 37.0907 257.312 36.408C254.667 35.768 252.491 35.1067 250.785 34.424C249.121 33.7413 247.67 32.696 246.433 31.288C245.238 29.88 244.641 27.9813 244.641 25.592C244.641 23.6293 245.195 21.8373 246.305 20.216C247.457 18.5947 249.078 17.3147 251.169 16.376C253.302 15.4373 255.798 14.968 258.657 14.968C262.881 14.968 266.251 16.0347 268.769 18.168C271.286 20.2587 272.673 23.096 272.929 26.68H264.353C264.225 25.272 263.627 24.1627 262.561 23.352C261.537 22.4987 260.15 22.072 258.401 22.072C256.779 22.072 255.521 22.3707 254.625 22.968C253.771 23.5653 253.345 24.3973 253.345 25.464C253.345 26.6587 253.942 27.576 255.137 28.216C256.331 28.8133 258.187 29.432 260.705 30.072C263.265 30.712 265.377 31.3733 267.041 32.056C268.705 32.7387 270.134 33.8053 271.329 35.256C272.566 36.664 273.206 38.5413 273.249 40.888C273.249 42.936 272.673 44.7707 271.521 46.392C270.411 48.0133 268.79 49.2933 266.657 50.232C264.566 51.128 262.113 51.576 259.297 51.576ZM313.564 32.504C313.564 33.784 313.478 34.936 313.308 35.96H287.388C287.601 38.52 288.497 40.5253 290.076 41.976C291.654 43.4267 293.596 44.152 295.9 44.152C299.228 44.152 301.596 42.7227 303.004 39.864H312.668C311.644 43.2773 309.681 46.0933 306.78 48.312C303.878 50.488 300.316 51.576 296.092 51.576C292.678 51.576 289.606 50.8293 286.876 49.336C284.188 47.8 282.076 45.6453 280.54 42.872C279.046 40.0987 278.299 36.8987 278.299 33.272C278.299 29.6027 279.046 26.3813 280.54 23.608C282.033 20.8347 284.124 18.7013 286.812 17.208C289.5 15.7147 292.593 14.968 296.092 14.968C299.462 14.968 302.47 15.6933 305.116 17.144C307.804 18.5947 309.873 20.664 311.324 23.352C312.817 25.9973 313.564 29.048 313.564 32.504ZM304.284 29.944C304.241 27.64 303.409 25.8053 301.788 24.44C300.166 23.032 298.182 22.328 295.836 22.328C293.617 22.328 291.74 23.0107 290.204 24.376C288.71 25.6987 287.793 27.5547 287.452 29.944H304.284Z" fill="white"/>
<path d="M351.098 51.576C347.684 51.576 344.612 50.8293 341.882 49.336C339.151 47.8 336.996 45.6453 335.418 42.872C333.882 40.0987 333.114 36.8987 333.114 33.272C333.114 29.6453 333.903 26.4453 335.482 23.672C337.103 20.8987 339.3 18.7653 342.074 17.272C344.847 15.736 347.94 14.968 351.354 14.968C354.767 14.968 357.86 15.736 360.634 17.272C363.407 18.7653 365.583 20.8987 367.162 23.672C368.783 26.4453 369.594 29.6453 369.594 33.272C369.594 36.8987 368.762 40.0987 367.097 42.872C365.476 45.6453 363.258 47.8 360.442 49.336C357.668 50.8293 354.554 51.576 351.098 51.576ZM351.098 43.768C352.719 43.768 354.234 43.384 355.642 42.616C357.092 41.8053 358.244 40.6107 359.098 39.032C359.951 37.4533 360.378 35.5333 360.378 33.272C360.378 29.9013 359.482 27.32 357.69 25.528C355.94 23.6933 353.786 22.776 351.226 22.776C348.666 22.776 346.511 23.6933 344.762 25.528C343.055 27.32 342.202 29.9013 342.202 33.272C342.202 36.6427 343.034 39.2453 344.698 41.08C346.404 42.872 348.538 43.768 351.098 43.768ZM385.126 20.664C386.278 19.0427 387.857 17.6987 389.862 16.632C391.91 15.5227 394.235 14.968 396.838 14.968C399.867 14.968 402.598 15.7147 405.03 17.208C407.505 18.7013 409.446 20.8347 410.854 23.608C412.305 26.3387 413.03 29.5173 413.03 33.144C413.03 36.7707 412.305 39.992 410.854 42.808C409.446 45.5813 407.505 47.736 405.03 49.272C402.598 50.808 399.867 51.576 396.838 51.576C394.235 51.576 391.931 51.0427 389.926 49.976C387.963 48.9093 386.363 47.5653 385.126 45.944V67.896H376.166V15.544H385.126V20.664ZM403.878 33.144C403.878 31.0107 403.43 29.176 402.534 27.64C401.681 26.0613 400.529 24.8667 399.078 24.056C397.67 23.2453 396.134 22.84 394.47 22.84C392.849 22.84 391.313 23.2667 389.862 24.12C388.454 24.9307 387.302 26.1253 386.406 27.704C385.553 29.2827 385.126 31.1387 385.126 33.272C385.126 35.4053 385.553 37.2613 386.406 38.84C387.302 40.4187 388.454 41.6347 389.862 42.488C391.313 43.2987 392.849 43.704 394.47 43.704C396.134 43.704 397.67 43.2773 399.078 42.424C400.529 41.5707 401.681 40.3547 402.534 38.776C403.43 37.1973 403.878 35.32 403.878 33.144ZM428.501 20.664C429.653 19.0427 431.232 17.6987 433.237 16.632C435.285 15.5227 437.61 14.968 440.213 14.968C443.242 14.968 445.973 15.7147 448.405 17.208C450.88 18.7013 452.821 20.8347 454.229 23.608C455.68 26.3387 456.405 29.5173 456.405 33.144C456.405 36.7707 455.68 39.992 454.229 42.808C452.821 45.5813 450.88 47.736 448.405 49.272C445.973 50.808 443.242 51.576 440.213 51.576C437.61 51.576 435.306 51.0427 433.301 49.976C431.338 48.9093 429.738 47.5653 428.501 45.944V67.896H419.541V15.544H428.501V20.664ZM447.253 33.144C447.253 31.0107 446.805 29.176 445.909 27.64C445.056 26.0613 443.904 24.8667 442.453 24.056C441.045 23.2453 439.509 22.84 437.845 22.84C436.224 22.84 434.688 23.2667 433.237 24.12C431.829 24.9307 430.677 26.1253 429.781 27.704C428.928 29.2827 428.501 31.1387 428.501 33.272C428.501 35.4053 428.928 37.2613 429.781 38.84C430.677 40.4187 431.829 41.6347 433.237 42.488C434.688 43.2987 436.224 43.704 437.845 43.704C439.509 43.704 441.045 43.2773 442.453 42.424C443.904 41.5707 445.056 40.3547 445.909 38.776C446.805 37.1973 447.253 35.32 447.253 33.144ZM478.66 51.576C475.247 51.576 472.175 50.8293 469.444 49.336C466.713 47.8 464.559 45.6453 462.98 42.872C461.444 40.0987 460.676 36.8987 460.676 33.272C460.676 29.6453 461.465 26.4453 463.044 23.672C464.665 20.8987 466.863 18.7653 469.636 17.272C472.409 15.736 475.503 14.968 478.916 14.968C482.329 14.968 485.423 15.736 488.196 17.272C490.969 18.7653 493.145 20.8987 494.724 23.672C496.345 26.4453 497.156 29.6453 497.156 33.272C497.156 36.8987 496.324 40.0987 494.66 42.872C493.039 45.6453 490.82 47.8 488.004 49.336C485.231 50.8293 482.116 51.576 478.66 51.576ZM478.66 43.768C480.281 43.768 481.796 43.384 483.204 42.616C484.655 41.8053 485.807 40.6107 486.66 39.032C487.513 37.4533 487.94 35.5333 487.94 33.272C487.94 29.9013 487.044 27.32 485.252 25.528C483.503 23.6933 481.348 22.776 478.788 22.776C476.228 22.776 474.073 23.6933 472.324 25.528C470.617 27.32 469.764 29.9013 469.764 33.272C469.764 36.6427 470.596 39.2453 472.26 41.08C473.967 42.872 476.1 43.768 478.66 43.768ZM512.689 21.048C513.841 19.1707 515.334 17.6987 517.169 16.632C519.046 15.5653 521.179 15.032 523.569 15.032V24.44H521.201C518.385 24.44 516.251 25.1013 514.801 26.424C513.393 27.7467 512.689 30.0507 512.689 33.336V51H503.729V15.544H512.689V21.048ZM540.036 22.904V40.056C540.036 41.2507 540.313 42.1253 540.868 42.68C541.465 43.192 542.446 43.448 543.812 43.448H547.972V51H542.34C534.788 51 531.012 47.3307 531.012 39.992V22.904H526.788V15.544H531.012V6.776H540.036V15.544H547.972V22.904H540.036ZM587.888 15.544V51H578.864V46.52C577.712 48.056 576.197 49.272 574.32 50.168C572.485 51.0213 570.48 51.448 568.304 51.448C565.531 51.448 563.077 50.872 560.944 49.72C558.811 48.5253 557.125 46.7973 555.888 44.536C554.693 42.232 554.096 39.5013 554.096 36.344V15.544H563.056V35.064C563.056 37.88 563.76 40.056 565.168 41.592C566.576 43.0853 568.496 43.832 570.928 43.832C573.403 43.832 575.344 43.0853 576.752 41.592C578.16 40.056 578.864 37.88 578.864 35.064V15.544H587.888ZM616.377 15.032C620.601 15.032 624.014 16.376 626.617 19.064C629.219 21.7093 630.521 25.4213 630.521 30.2V51H621.561V31.416C621.561 28.6 620.857 26.4453 619.449 24.952C618.041 23.416 616.121 22.648 613.689 22.648C611.214 22.648 609.251 23.416 607.801 24.952C606.393 26.4453 605.689 28.6 605.689 31.416V51H596.729V15.544H605.689V19.96C606.883 18.424 608.398 17.2293 610.233 16.376C612.11 15.48 614.158 15.032 616.377 15.032ZM643.585 11.32C642.006 11.32 640.684 10.8293 639.617 9.848C638.593 8.824 638.081 7.56533 638.081 6.072C638.081 4.57866 638.593 3.34133 639.617 2.36C640.684 1.336 642.006 0.823997 643.585 0.823997C645.164 0.823997 646.465 1.336 647.489 2.36C648.556 3.34133 649.089 4.57866 649.089 6.072C649.089 7.56533 648.556 8.824 647.489 9.848C646.465 10.8293 645.164 11.32 643.585 11.32ZM648.001 15.544V51H639.041V15.544H648.001ZM667.286 22.904V40.056C667.286 41.2507 667.563 42.1253 668.118 42.68C668.715 43.192 669.696 43.448 671.062 43.448H675.222V51H669.59C662.038 51 658.262 47.3307 658.262 39.992V22.904H654.038V15.544H658.262V6.776H667.286V15.544H675.222V22.904H667.286ZM715.586 15.544L693.634 67.768H684.098L691.778 50.104L677.57 15.544H687.618L696.77 40.312L706.05 15.544H715.586Z" fill="#FF9600"/>
</svg>
